<svg width="345" height="128" viewBox="0 0 345 128" fill="none" xmlns="http://www.w3.org/2000/svg">
<path d="M131.096 55.0667V77.5577H135.006V62.0732H135.214L141.43 77.4918H144.351L150.567 62.1061H150.776V77.5577H154.685V55.0667H149.699L143.022 71.3639H142.759L136.082 55.0667H131.096ZM163.8 77.8981C166.447 77.8981 168.028 76.6571 168.753 75.2405H168.885V77.5577H172.706V66.2683C172.706 61.8096 169.071 60.4698 165.854 60.4698C162.307 60.4698 159.583 62.0512 158.704 65.1262L162.416 65.6533C162.812 64.5002 163.932 63.5118 165.876 63.5118C167.721 63.5118 168.731 64.4563 168.731 66.1145V66.1804C168.731 67.3225 167.534 67.3774 164.558 67.6959C161.285 68.0473 158.155 69.0247 158.155 72.8245C158.155 76.141 160.582 77.8981 163.8 77.8981ZM164.832 74.9769C163.174 74.9769 161.988 74.2192 161.988 72.7586C161.988 71.2321 163.317 70.5951 165.096 70.3426C166.139 70.1998 168.226 69.9362 168.742 69.5189V71.5066C168.742 73.3845 167.226 74.9769 164.832 74.9769ZM185.127 60.6895H181.799V56.6481H177.824V60.6895H175.43V63.7644H177.824V73.1429C177.802 76.3167 180.108 77.8761 183.095 77.7883C184.226 77.7553 185.006 77.5357 185.434 77.3929L184.765 74.2851C184.545 74.34 184.095 74.4388 183.6 74.4388C182.601 74.4388 181.799 74.0874 181.799 72.484V63.7644H185.127V60.6895ZM195.738 77.8871C199.67 77.8871 202.371 75.9653 203.074 73.0331L199.362 72.6158C198.824 74.0435 197.506 74.7902 195.793 74.7902C193.223 74.7902 191.521 73.099 191.488 70.2108H203.239V68.9918C203.239 63.0725 199.681 60.4698 195.53 60.4698C190.698 60.4698 187.546 64.017 187.546 69.2224C187.546 74.5157 190.654 77.8871 195.738 77.8871ZM191.499 67.5312C191.62 65.3787 193.212 63.5667 195.584 63.5667C197.869 63.5667 199.406 65.236 199.428 67.5312H191.499ZM206.602 77.5577H210.577V67.641C210.577 65.4995 212.192 63.984 214.377 63.984C215.047 63.984 215.882 64.1048 216.222 64.2147V60.5577C215.86 60.4918 215.234 60.4479 214.795 60.4479C212.862 60.4479 211.247 61.5461 210.632 63.5008H210.457V60.6895H206.602V77.5577ZM218.863 77.5577H222.839V60.6895H218.863V77.5577ZM220.862 58.2954C222.125 58.2954 223.157 57.329 223.157 56.143C223.157 54.9459 222.125 53.9795 220.862 53.9795C219.588 53.9795 218.556 54.9459 218.556 56.143C218.556 57.329 219.588 58.2954 220.862 58.2954ZM231.781 77.8981C234.427 77.8981 236.009 76.6571 236.734 75.2405H236.865V77.5577H240.687V66.2683C240.687 61.8096 237.052 60.4698 233.834 60.4698C230.287 60.4698 227.564 62.0512 226.685 65.1262L230.397 65.6533C230.792 64.5002 231.913 63.5118 233.856 63.5118C235.701 63.5118 236.712 64.4563 236.712 66.1145V66.1804C236.712 67.3225 235.515 67.3774 232.539 67.6959C229.266 68.0473 226.136 69.0247 226.136 72.8245C226.136 76.141 228.563 77.8981 231.781 77.8981ZM232.813 74.9769C231.155 74.9769 229.969 74.2192 229.969 72.7586C229.969 71.2321 231.298 70.5951 233.077 70.3426C234.12 70.1998 236.207 69.9362 236.723 69.5189V71.5066C236.723 73.3845 235.207 74.9769 232.813 74.9769ZM248.66 55.0667H244.685V77.5577H248.66V55.0667ZM252.748 77.5577H256.723V60.6895H252.748V77.5577ZM254.747 58.2954C256.01 58.2954 257.042 57.329 257.042 56.143C257.042 54.9459 256.01 53.9795 254.747 53.9795C253.473 53.9795 252.441 54.9459 252.441 56.143C252.441 57.329 253.473 58.2954 254.747 58.2954ZM260.592 77.5577H274.44V74.2631H265.874V74.1203L274.154 63.402V60.6895H260.877V63.984H269.289V64.1268L260.592 75.0318V77.5577ZM285.161 77.8871C289.093 77.8871 291.794 75.9653 292.497 73.0331L288.785 72.6158C288.247 74.0435 286.929 74.7902 285.216 74.7902C282.646 74.7902 280.944 73.099 280.911 70.2108H292.662V68.9918C292.662 63.0725 289.104 60.4698 284.952 60.4698C280.12 60.4698 276.969 64.017 276.969 69.2224C276.969 74.5157 280.076 77.8871 285.161 77.8871ZM280.922 67.5312C281.043 65.3787 282.635 63.5667 285.007 63.5667C287.292 63.5667 288.829 65.236 288.851 67.5312H280.922Z" fill="#1B164C"/>
<path opacity="0.7" d="M101.071 43.3788V49.6055L101.062 86.4703H91.0603V47.0044L94.1949 43.8125C94.3273 43.6694 94.489 43.5565 94.6689 43.4817C94.8489 43.4068 95.0429 43.3717 95.2376 43.3788H101.071Z" fill="#1B164C"/>
<path opacity="0.7" fill-rule="evenodd" clip-rule="evenodd" d="M85.7745 72.4453C85.0688 71.5405 84.365 70.638 83.6742 69.9472C82.3963 68.6739 81.1274 67.3914 79.8596 66.11C79.2269 65.4706 78.5944 64.8314 77.9612 64.1936V59.7583L77.9632 59.7493C77.9576 59.5545 77.994 59.3609 78.07 59.1815C78.1206 59.0622 78.1878 58.9512 78.2695 58.8515L87.9657 49.5627V50.0586V73.7988C87.9651 73.8322 87.9663 73.9478 87.9678 74.096C87.9714 74.44 87.9769 74.96 87.9657 75.0368C87.2417 74.3266 86.5071 73.3847 85.7745 72.4453Z" fill="#1B164C"/>
<path d="M49.7483 54.8863V68.8778L67.4017 86.4703H81.4405L49.7483 54.8863Z" fill="#1B164C"/>
<path d="M49.7483 86.4703H62.7244L49.7483 73.5416V86.4703Z" fill="#1B164C"/>
<path d="M86.1733 86.4703H100.074L58.149 43.8128C58.0167 43.6699 57.855 43.5571 57.6751 43.4824C57.4952 43.4076 57.3013 43.3726 57.1066 43.3796H49.7623V49.5999L86.1733 86.4703Z" fill="#1B164C"/>
</svg>
