<svg width="128" height="128" viewBox="0 0 128 128" fill="none" xmlns="http://www.w3.org/2000/svg">
<path opacity="0.7" d="M97.961 36.608V44.8111L97.9488 93.3767H84.7724V41.3844L88.902 37.1793C89.0764 36.9908 89.2894 36.8422 89.5265 36.7436C89.7635 36.645 90.0191 36.5987 90.2756 36.608H97.961Z" fill="#1B164C"/>
<path opacity="0.7" fill-rule="evenodd" clip-rule="evenodd" d="M77.8089 74.9003C76.8793 73.7083 75.952 72.5194 75.042 71.6093C73.3585 69.9318 71.687 68.2424 70.0167 66.5543C69.1831 65.7118 68.3499 64.8697 67.5157 64.0295V58.1866L67.5185 58.1745C67.511 57.9179 67.559 57.6628 67.6591 57.4265C67.7258 57.2693 67.8144 57.1229 67.9221 56.9916L80.6956 44.7547V45.408V76.6833C80.6948 76.7274 80.6964 76.8796 80.6985 77.0749C80.7032 77.5281 80.7104 78.2131 80.6956 78.3143C79.7418 77.3786 78.774 76.1378 77.8089 74.9003Z" fill="#1B164C"/>
<path d="M30.3481 51.7681V70.2004L53.6047 93.3767H72.0994L30.3481 51.7681Z" fill="#1B164C"/>
<path d="M30.3481 93.3767H47.4428L30.3481 76.3445V93.3767Z" fill="#1B164C"/>
<path d="M78.3343 93.3767H96.6476L41.4152 37.1798C41.2408 36.9915 41.0279 36.843 40.7909 36.7445C40.5539 36.646 40.2984 36.5998 40.0419 36.6091H30.3665V44.8037L78.3343 93.3767Z" fill="#1B164C"/>
</svg>
